<?xml version="1.0" encoding="UTF-8" standalone="no"?>
<!DOCTYPE svg PUBLIC "-//W3C//DTD SVG 1.1//EN"
 "http://www.w3.org/Graphics/SVG/1.1/DTD/svg11.dtd">
<!-- Generated by graphviz version 2.43.0 (0)
 -->
<!-- Title: examples/esp32/main/fdo2_sensor_demo.cpp Pages: 1 -->
<svg width="966pt" height="313pt"
 viewBox="0.00 0.00 966.00 313.00" xmlns="http://www.w3.org/2000/svg" xmlns:xlink="http://www.w3.org/1999/xlink">
<g id="graph0" class="graph" transform="scale(1 1) rotate(0) translate(4 309)">
<title>examples/esp32/main/fdo2_sensor_demo.cpp</title>
<!-- Node1 -->
<g id="Node000001" class="node">
<title>Node1</title>
<g id="a_Node000001"><a xlink:title=" ">
<polygon fill="#999999" stroke="#666666" points="838,-305 706,-305 706,-275 838,-275 838,-305"/>
<text text-anchor="start" x="714" y="-293" font-family="Helvetica,sans-Serif" font-size="10.00">examples/esp32/main</text>
<text text-anchor="middle" x="772" y="-282" font-family="Helvetica,sans-Serif" font-size="10.00">/fdo2_sensor_demo.cpp</text>
</a>
</g>
</g>
<!-- Node2 -->
<g id="Node000002" class="node">
<title>Node2</title>
<g id="a_Node000002"><a xlink:href="fdo2_8hpp.html" target="_top" xlink:title="Umbrella header for the HF&#45;FDO2 (FDO2&#45;G2) UART driver.">
<polygon fill="white" stroke="#666666" points="469.5,-184 410.5,-184 410.5,-165 469.5,-165 469.5,-184"/>
<text text-anchor="middle" x="440" y="-172" font-family="Helvetica,sans-Serif" font-size="10.00">fdo2.hpp</text>
</a>
</g>
</g>
<!-- Node1&#45;&gt;Node2 -->
<g id="edge1_Node000001_Node000002" class="edge">
<title>Node1&#45;&gt;Node2</title>
<g id="a_edge1_Node000001_Node000002"><a xlink:title=" ">
<path fill="none" stroke="#63b8ff" d="M705.68,-276.61C665.23,-268.11 612.87,-255.4 568,-239 529.99,-225.11 488.44,-203.13 463.3,-189.02"/>
<polygon fill="#63b8ff" stroke="#63b8ff" points="464.93,-185.92 454.51,-184.02 461.47,-192.01 464.93,-185.92"/>
</a>
</g>
</g>
<!-- Node15 -->
<g id="Node000015" class="node">
<title>Node15</title>
<g id="a_Node000015"><a xlink:href="hf__fdo2__esp__uart_8hpp.html" target="_top" xlink:title="Reusable ESP&#45;IDF UART transport for fdo2::Driver (CRTP, zero virtual calls).">
<polygon fill="white" stroke="#666666" points="699,-239 577,-239 577,-220 699,-220 699,-239"/>
<text text-anchor="middle" x="638" y="-227" font-family="Helvetica,sans-Serif" font-size="10.00">hf_fdo2_esp_uart.hpp</text>
</a>
</g>
</g>
<!-- Node1&#45;&gt;Node15 -->
<g id="edge18_Node000001_Node000015" class="edge">
<title>Node1&#45;&gt;Node15</title>
<g id="a_edge18_Node000001_Node000015"><a xlink:title=" ">
<path fill="none" stroke="#63b8ff" d="M739.9,-274.99C717.75,-265.31 688.52,-252.56 667.05,-243.18"/>
<polygon fill="#63b8ff" stroke="#63b8ff" points="668.35,-239.93 657.79,-239.14 665.55,-246.35 668.35,-239.93"/>
</a>
</g>
</g>
<!-- Node18 -->
<g id="Node000018" class="node">
<title>Node18</title>
<g id="a_Node000018"><a xlink:title=" ">
<polygon fill="#e0e0e0" stroke="#999999" points="851.5,-184 738.5,-184 738.5,-165 851.5,-165 851.5,-184"/>
<text text-anchor="middle" x="795" y="-172" font-family="Helvetica,sans-Serif" font-size="10.00">freertos/FreeRTOS.h</text>
</a>
</g>
</g>
<!-- Node1&#45;&gt;Node18 -->
<g id="edge27_Node000001_Node000018" class="edge">
<title>Node1&#45;&gt;Node18</title>
<g id="a_edge27_Node000001_Node000018"><a xlink:title=" ">
<path fill="none" stroke="#63b8ff" d="M774.91,-274.63C779.05,-254.21 786.63,-216.81 791.2,-194.24"/>
<polygon fill="#63b8ff" stroke="#63b8ff" points="794.68,-194.73 793.23,-184.23 787.81,-193.34 794.68,-194.73"/>
</a>
</g>
</g>
<!-- Node19 -->
<g id="Node000019" class="node">
<title>Node19</title>
<g id="a_Node000019"><a xlink:title=" ">
<polygon fill="#e0e0e0" stroke="#999999" points="958,-184 870,-184 870,-165 958,-165 958,-184"/>
<text text-anchor="middle" x="914" y="-172" font-family="Helvetica,sans-Serif" font-size="10.00">freertos/task.h</text>
</a>
</g>
</g>
<!-- Node1&#45;&gt;Node19 -->
<g id="edge28_Node000001_Node000019" class="edge">
<title>Node1&#45;&gt;Node19</title>
<g id="a_edge28_Node000001_Node000019"><a xlink:title=" ">
<path fill="none" stroke="#63b8ff" d="M781.35,-274.92C791.85,-259.91 810.04,-236.13 830,-220 846.1,-207 866.58,-196.06 883.29,-188.28"/>
<polygon fill="#63b8ff" stroke="#63b8ff" points="884.95,-191.37 892.63,-184.07 882.07,-184.98 884.95,-191.37"/>
</a>
</g>
</g>
<!-- Node20 -->
<g id="Node000020" class="node">
<title>Node20</title>
<g id="a_Node000020"><a xlink:title=" ">
<polygon fill="#e0e0e0" stroke="#999999" points="901.5,-239 838.5,-239 838.5,-220 901.5,-220 901.5,-239"/>
<text text-anchor="middle" x="870" y="-227" font-family="Helvetica,sans-Serif" font-size="10.00">esp_log.h</text>
</a>
</g>
</g>
<!-- Node1&#45;&gt;Node20 -->
<g id="edge26_Node000001_Node000020" class="edge">
<title>Node1&#45;&gt;Node20</title>
<g id="a_edge26_Node000001_Node000020"><a xlink:title=" ">
<path fill="none" stroke="#63b8ff" d="M795.72,-274.84C811.2,-265.6 831.32,-253.59 846.71,-244.4"/>
<polygon fill="#63b8ff" stroke="#63b8ff" points="848.81,-247.23 855.6,-239.09 845.22,-241.21 848.81,-247.23"/>
</a>
</g>
</g>
<!-- Node3 -->
<g id="Node000003" class="node">
<title>Node3</title>
<g id="a_Node000003"><a xlink:href="fdo2__uart__interface_8hpp.html" target="_top" xlink:title="CRTP byte transport for the PyroScience Unified Protocol (PSUP).">
<polygon fill="white" stroke="#666666" points="548.5,-74 415.5,-74 415.5,-55 548.5,-55 548.5,-74"/>
<text text-anchor="middle" x="482" y="-62" font-family="Helvetica,sans-Serif" font-size="10.00">fdo2_uart_interface.hpp</text>
</a>
</g>
</g>
<!-- Node2&#45;&gt;Node3 -->
<g id="edge2_Node000002_Node000003" class="edge">
<title>Node2&#45;&gt;Node3</title>
<g id="a_edge2_Node000002_Node000003"><a xlink:title=" ">
<path fill="none" stroke="#63b8ff" d="M443.44,-164.66C450.3,-147.01 465.83,-107.09 474.95,-83.64"/>
<polygon fill="#63b8ff" stroke="#63b8ff" points="478.27,-84.75 478.63,-74.16 471.75,-82.21 478.27,-84.75"/>
</a>
</g>
</g>
<!-- Node7 -->
<g id="Node000007" class="node">
<title>Node7</title>
<g id="a_Node000007"><a xlink:href="fdo2__types_8hpp.html" target="_top" xlink:title="FDO2&#45;G2 UART types, scaling, and status decoding (PyroScience data sheet v5).">
<polygon fill="white" stroke="#666666" points="92,-74 0,-74 0,-55 92,-55 92,-74"/>
<text text-anchor="middle" x="46" y="-62" font-family="Helvetica,sans-Serif" font-size="10.00">fdo2_types.hpp</text>
</a>
</g>
</g>
<!-- Node2&#45;&gt;Node7 -->
<g id="edge6_Node000002_Node000007" class="edge">
<title>Node2&#45;&gt;Node7</title>
<g id="a_edge6_Node000002_Node000007"><a xlink:title=" ">
<path fill="none" stroke="#63b8ff" d="M410.29,-169.16C367.04,-162.5 284.46,-148.45 216,-129 165.6,-114.68 108.94,-92.17 75.43,-78.15"/>
<polygon fill="#63b8ff" stroke="#63b8ff" points="76.37,-74.75 65.8,-74.09 73.65,-81.2 76.37,-74.75"/>
</a>
</g>
</g>
<!-- Node10 -->
<g id="Node000010" class="node">
<title>Node10</title>
<g id="a_Node000010"><a xlink:href="fdo2__driver_8hpp.html" target="_top" xlink:title="FDO2&#45;G2 UART command client (PyroScience data sheet v5, §4).">
<polygon fill="white" stroke="#666666" points="317,-129 225,-129 225,-110 317,-110 317,-129"/>
<text text-anchor="middle" x="271" y="-117" font-family="Helvetica,sans-Serif" font-size="10.00">fdo2_driver.hpp</text>
</a>
</g>
</g>
<!-- Node2&#45;&gt;Node10 -->
<g id="edge10_Node000002_Node000010" class="edge">
<title>Node2&#45;&gt;Node10</title>
<g id="a_edge10_Node000002_Node000010"><a xlink:title=" ">
<path fill="none" stroke="#63b8ff" d="M412.85,-164.98C384.47,-156.09 339.77,-142.07 308.14,-132.15"/>
<polygon fill="#63b8ff" stroke="#63b8ff" points="308.95,-128.73 298.37,-129.08 306.86,-135.41 308.95,-128.73"/>
</a>
</g>
</g>
<!-- Node4 -->
<g id="Node000004" class="node">
<title>Node4</title>
<g id="a_Node000004"><a xlink:title=" ">
<polygon fill="#e0e0e0" stroke="#999999" points="625.5,-19 572.5,-19 572.5,0 625.5,0 625.5,-19"/>
<text text-anchor="middle" x="599" y="-7" font-family="Helvetica,sans-Serif" font-size="10.00">cstddef</text>
</a>
</g>
</g>
<!-- Node3&#45;&gt;Node4 -->
<g id="edge3_Node000003_Node000004" class="edge">
<title>Node3&#45;&gt;Node4</title>
<g id="a_edge3_Node000003_Node000004"><a xlink:title=" ">
<path fill="none" stroke="#63b8ff" d="M500.8,-54.98C519.62,-46.46 548.82,-33.23 570.5,-23.41"/>
<polygon fill="#63b8ff" stroke="#63b8ff" points="572.2,-26.48 579.86,-19.17 569.31,-20.11 572.2,-26.48"/>
</a>
</g>
</g>
<!-- Node5 -->
<g id="Node000005" class="node">
<title>Node5</title>
<g id="a_Node000005"><a xlink:title=" ">
<polygon fill="#e0e0e0" stroke="#999999" points="523,-19 473,-19 473,0 523,0 523,-19"/>
<text text-anchor="middle" x="498" y="-7" font-family="Helvetica,sans-Serif" font-size="10.00">cstdint</text>
</a>
</g>
</g>
<!-- Node3&#45;&gt;Node5 -->
<g id="edge4_Node000003_Node000005" class="edge">
<title>Node3&#45;&gt;Node5</title>
<g id="a_edge4_Node000003_Node000005"><a xlink:title=" ">
<path fill="none" stroke="#63b8ff" d="M484.64,-54.75C486.76,-47.72 489.81,-37.62 492.46,-28.84"/>
<polygon fill="#63b8ff" stroke="#63b8ff" points="495.87,-29.67 495.41,-19.09 489.17,-27.65 495.87,-29.67"/>
</a>
</g>
</g>
<!-- Node6 -->
<g id="Node000006" class="node">
<title>Node6</title>
<g id="a_Node000006"><a xlink:title=" ">
<polygon fill="#e0e0e0" stroke="#999999" points="454.5,-19 385.5,-19 385.5,0 454.5,0 454.5,-19"/>
<text text-anchor="middle" x="420" y="-7" font-family="Helvetica,sans-Serif" font-size="10.00">type_traits</text>
</a>
</g>
</g>
<!-- Node3&#45;&gt;Node6 -->
<g id="edge5_Node000003_Node000006" class="edge">
<title>Node3&#45;&gt;Node6</title>
<g id="a_edge5_Node000003_Node000006"><a xlink:title=" ">
<path fill="none" stroke="#63b8ff" d="M472.04,-54.98C462.87,-47.15 449.06,-35.34 437.97,-25.86"/>
<polygon fill="#63b8ff" stroke="#63b8ff" points="440.02,-23.01 430.14,-19.17 435.47,-28.33 440.02,-23.01"/>
</a>
</g>
</g>
<!-- Node7&#45;&gt;Node5 -->
<g id="edge8_Node000007_Node000005" class="edge">
<title>Node7&#45;&gt;Node5</title>
<g id="a_edge8_Node000007_Node000005"><a xlink:title=" ">
<path fill="none" stroke="#63b8ff" d="M92.36,-58.9C193.38,-48.83 427.18,-25.23 463,-19 463.1,-18.98 463.2,-18.97 463.3,-18.95"/>
<polygon fill="#63b8ff" stroke="#63b8ff" points="463.73,-22.43 472.85,-17.03 462.35,-15.57 463.73,-22.43"/>
</a>
</g>
</g>
<!-- Node8 -->
<g id="Node000008" class="node">
<title>Node8</title>
<g id="a_Node000008"><a xlink:title=" ">
<polygon fill="#e0e0e0" stroke="#999999" points="65.5,-19 18.5,-19 18.5,0 65.5,0 65.5,-19"/>
<text text-anchor="middle" x="42" y="-7" font-family="Helvetica,sans-Serif" font-size="10.00">cmath</text>
</a>
</g>
</g>
<!-- Node7&#45;&gt;Node8 -->
<g id="edge7_Node000007_Node000008" class="edge">
<title>Node7&#45;&gt;Node8</title>
<g id="a_edge7_Node000007_Node000008"><a xlink:title=" ">
<path fill="none" stroke="#63b8ff" d="M45.34,-54.75C44.82,-47.8 44.06,-37.85 43.41,-29.13"/>
<polygon fill="#63b8ff" stroke="#63b8ff" points="46.89,-28.8 42.65,-19.09 39.91,-29.32 46.89,-28.8"/>
</a>
</g>
</g>
<!-- Node9 -->
<g id="Node000009" class="node">
<title>Node9</title>
<g id="a_Node000009"><a xlink:title=" ">
<polygon fill="#e0e0e0" stroke="#999999" points="156.5,-19 83.5,-19 83.5,0 156.5,0 156.5,-19"/>
<text text-anchor="middle" x="120" y="-7" font-family="Helvetica,sans-Serif" font-size="10.00">string_view</text>
</a>
</g>
</g>
<!-- Node7&#45;&gt;Node9 -->
<g id="edge9_Node000007_Node000009" class="edge">
<title>Node7&#45;&gt;Node9</title>
<g id="a_edge9_Node000007_Node000009"><a xlink:title=" ">
<path fill="none" stroke="#63b8ff" d="M57.89,-54.98C69.15,-46.92 86.29,-34.65 99.71,-25.03"/>
<polygon fill="#63b8ff" stroke="#63b8ff" points="101.8,-27.84 107.89,-19.17 97.73,-22.15 101.8,-27.84"/>
</a>
</g>
</g>
<!-- Node10&#45;&gt;Node3 -->
<g id="edge12_Node000010_Node000003" class="edge">
<title>Node10&#45;&gt;Node3</title>
<g id="a_edge12_Node000010_Node000003"><a xlink:title=" ">
<path fill="none" stroke="#63b8ff" d="M304.9,-109.98C341.02,-100.91 398.32,-86.52 437.92,-76.57"/>
<polygon fill="#63b8ff" stroke="#63b8ff" points="438.99,-79.91 447.83,-74.08 437.28,-73.12 438.99,-79.91"/>
</a>
</g>
</g>
<!-- Node10&#45;&gt;Node7 -->
<g id="edge11_Node000010_Node000007" class="edge">
<title>Node10&#45;&gt;Node7</title>
<g id="a_edge11_Node000010_Node000007"><a xlink:title=" ">
<path fill="none" stroke="#63b8ff" d="M234.85,-109.98C196.09,-100.86 134.45,-86.33 92.2,-76.38"/>
<polygon fill="#63b8ff" stroke="#63b8ff" points="92.97,-72.97 82.43,-74.08 91.36,-79.78 92.97,-72.97"/>
</a>
</g>
</g>
<!-- Node10&#45;&gt;Node9 -->
<g id="edge17_Node000010_Node000009" class="edge">
<title>Node10&#45;&gt;Node9</title>
<g id="a_edge17_Node000010_Node000009"><a xlink:title=" ">
<path fill="none" stroke="#63b8ff" d="M224.98,-113.69C196.63,-108.41 161.52,-97.31 139,-74 127.39,-61.98 122.84,-43.17 121.07,-29.14"/>
<polygon fill="#63b8ff" stroke="#63b8ff" points="124.55,-28.78 120.17,-19.13 117.58,-29.4 124.55,-28.78"/>
</a>
</g>
</g>
<!-- Node11 -->
<g id="Node000011" class="node">
<title>Node11</title>
<g id="a_Node000011"><a xlink:title=" ">
<polygon fill="#e0e0e0" stroke="#999999" points="397.5,-74 348.5,-74 348.5,-55 397.5,-55 397.5,-74"/>
<text text-anchor="middle" x="373" y="-62" font-family="Helvetica,sans-Serif" font-size="10.00">cctype</text>
</a>
</g>
</g>
<!-- Node10&#45;&gt;Node11 -->
<g id="edge13_Node000010_Node000011" class="edge">
<title>Node10&#45;&gt;Node11</title>
<g id="a_edge13_Node000010_Node000011"><a xlink:title=" ">
<path fill="none" stroke="#63b8ff" d="M287.39,-109.98C303.57,-101.57 328.57,-88.59 347.38,-78.81"/>
<polygon fill="#63b8ff" stroke="#63b8ff" points="349.05,-81.89 356.31,-74.17 345.83,-75.68 349.05,-81.89"/>
</a>
</g>
</g>
<!-- Node12 -->
<g id="Node000012" class="node">
<title>Node12</title>
<g id="a_Node000012"><a xlink:title=" ">
<polygon fill="#e0e0e0" stroke="#999999" points="194,-74 148,-74 148,-55 194,-55 194,-74"/>
<text text-anchor="middle" x="171" y="-62" font-family="Helvetica,sans-Serif" font-size="10.00">cstdio</text>
</a>
</g>
</g>
<!-- Node10&#45;&gt;Node12 -->
<g id="edge14_Node000010_Node000012" class="edge">
<title>Node10&#45;&gt;Node12</title>
<g id="a_edge14_Node000010_Node000012"><a xlink:title=" ">
<path fill="none" stroke="#63b8ff" d="M254.93,-109.98C239.14,-101.61 214.78,-88.7 196.37,-78.95"/>
<polygon fill="#63b8ff" stroke="#63b8ff" points="197.83,-75.76 187.36,-74.17 194.56,-81.95 197.83,-75.76"/>
</a>
</g>
</g>
<!-- Node13 -->
<g id="Node000013" class="node">
<title>Node13</title>
<g id="a_Node000013"><a xlink:title=" ">
<polygon fill="#e0e0e0" stroke="#999999" points="261.5,-74 212.5,-74 212.5,-55 261.5,-55 261.5,-74"/>
<text text-anchor="middle" x="237" y="-62" font-family="Helvetica,sans-Serif" font-size="10.00">cstdlib</text>
</a>
</g>
</g>
<!-- Node10&#45;&gt;Node13 -->
<g id="edge15_Node000010_Node000013" class="edge">
<title>Node10&#45;&gt;Node13</title>
<g id="a_edge15_Node000010_Node000013"><a xlink:title=" ">
<path fill="none" stroke="#63b8ff" d="M265.39,-109.75C260.68,-102.42 253.83,-91.73 248.03,-82.7"/>
<polygon fill="#63b8ff" stroke="#63b8ff" points="250.86,-80.62 242.51,-74.09 244.96,-84.4 250.86,-80.62"/>
</a>
</g>
</g>
<!-- Node14 -->
<g id="Node000014" class="node">
<title>Node14</title>
<g id="a_Node000014"><a xlink:title=" ">
<polygon fill="#e0e0e0" stroke="#999999" points="330,-74 280,-74 280,-55 330,-55 330,-74"/>
<text text-anchor="middle" x="305" y="-62" font-family="Helvetica,sans-Serif" font-size="10.00">cstring</text>
</a>
</g>
</g>
<!-- Node10&#45;&gt;Node14 -->
<g id="edge16_Node000010_Node000014" class="edge">
<title>Node10&#45;&gt;Node14</title>
<g id="a_edge16_Node000010_Node000014"><a xlink:title=" ">
<path fill="none" stroke="#63b8ff" d="M276.61,-109.75C281.32,-102.42 288.17,-91.73 293.97,-82.7"/>
<polygon fill="#63b8ff" stroke="#63b8ff" points="297.04,-84.4 299.49,-74.09 291.14,-80.62 297.04,-84.4"/>
</a>
</g>
</g>
<!-- Node15&#45;&gt;Node2 -->
<g id="edge19_Node000015_Node000002" class="edge">
<title>Node15&#45;&gt;Node2</title>
<g id="a_edge19_Node000015_Node000002"><a xlink:title=" ">
<path fill="none" stroke="#63b8ff" d="M606.19,-219.98C571.81,-210.78 516.98,-196.11 479.78,-186.15"/>
<polygon fill="#63b8ff" stroke="#63b8ff" points="480.35,-182.68 469.79,-183.47 478.54,-189.44 480.35,-182.68"/>
</a>
</g>
</g>
<!-- Node15&#45;&gt;Node4 -->
<g id="edge24_Node000015_Node000004" class="edge">
<title>Node15&#45;&gt;Node4</title>
<g id="a_edge24_Node000015_Node000004"><a xlink:title=" ">
<path fill="none" stroke="#63b8ff" d="M636.47,-219.95C630.73,-187.88 610.4,-74.2 602.33,-29.12"/>
<polygon fill="#63b8ff" stroke="#63b8ff" points="605.77,-28.45 600.56,-19.22 598.88,-29.68 605.77,-28.45"/>
</a>
</g>
</g>
<!-- Node15&#45;&gt;Node5 -->
<g id="edge25_Node000015_Node000005" class="edge">
<title>Node15&#45;&gt;Node5</title>
<g id="a_edge25_Node000015_Node000005"><a xlink:title=" ">
<path fill="none" stroke="#63b8ff" d="M634.51,-219.6C622.12,-188.2 579.7,-83.03 557,-55 547.22,-42.92 533.49,-32.31 521.73,-24.48"/>
<polygon fill="#63b8ff" stroke="#63b8ff" points="523.54,-21.49 513.22,-19.06 519.78,-27.39 523.54,-21.49"/>
</a>
</g>
</g>
<!-- Node16 -->
<g id="Node000016" class="node">
<title>Node16</title>
<g id="a_Node000016"><a xlink:title=" ">
<polygon fill="#e0e0e0" stroke="#999999" points="720.5,-184 643.5,-184 643.5,-165 720.5,-165 720.5,-184"/>
<text text-anchor="middle" x="682" y="-172" font-family="Helvetica,sans-Serif" font-size="10.00">driver/uart.h</text>
</a>
</g>
</g>
<!-- Node15&#45;&gt;Node16 -->
<g id="edge20_Node000015_Node000016" class="edge">
<title>Node15&#45;&gt;Node16</title>
<g id="a_edge20_Node000015_Node000016"><a xlink:title=" ">
<path fill="none" stroke="#63b8ff" d="M645.27,-219.75C651.54,-212.18 660.79,-201.05 668.43,-191.84"/>
<polygon fill="#63b8ff" stroke="#63b8ff" points="671.17,-194.02 674.87,-184.09 665.79,-189.55 671.17,-194.02"/>
</a>
</g>
</g>
<!-- Node17 -->
<g id="Node000017" class="node">
<title>Node17</title>
<g id="a_Node000017"><a xlink:title=" ">
<polygon fill="#e0e0e0" stroke="#999999" points="548.5,-184 487.5,-184 487.5,-165 548.5,-165 548.5,-184"/>
<text text-anchor="middle" x="518" y="-172" font-family="Helvetica,sans-Serif" font-size="10.00">esp_err.h</text>
</a>
</g>
</g>
<!-- Node15&#45;&gt;Node17 -->
<g id="edge21_Node000015_Node000017" class="edge">
<title>Node15&#45;&gt;Node17</title>
<g id="a_edge21_Node000015_Node000017"><a xlink:title=" ">
<path fill="none" stroke="#63b8ff" d="M618.72,-219.98C599.33,-211.42 569.19,-198.11 546.93,-188.28"/>
<polygon fill="#63b8ff" stroke="#63b8ff" points="548.19,-185.01 537.63,-184.17 545.36,-191.41 548.19,-185.01"/>
</a>
</g>
</g>
<!-- Node15&#45;&gt;Node18 -->
<g id="edge22_Node000015_Node000018" class="edge">
<title>Node15&#45;&gt;Node18</title>
<g id="a_edge22_Node000015_Node000018"><a xlink:title=" ">
<path fill="none" stroke="#63b8ff" d="M663.22,-219.98C689.36,-211.16 730.4,-197.31 759.73,-187.41"/>
<polygon fill="#63b8ff" stroke="#63b8ff" points="761.22,-190.6 769.58,-184.08 758.98,-183.96 761.22,-190.6"/>
</a>
</g>
</g>
<!-- Node15&#45;&gt;Node19 -->
<g id="edge23_Node000015_Node000019" class="edge">
<title>Node15&#45;&gt;Node19</title>
<g id="a_edge23_Node000015_Node000019"><a xlink:title=" ">
<path fill="none" stroke="#63b8ff" d="M682.34,-219.98C730.63,-210.71 807.88,-195.88 859.75,-185.92"/>
<polygon fill="#63b8ff" stroke="#63b8ff" points="860.61,-189.32 869.77,-183.99 859.29,-182.44 860.61,-189.32"/>
</a>
</g>
</g>
</g>
</svg>
